<svg width="24" height="24" viewBox="0 0 24 24" fill="none" xmlns="http://www.w3.org/2000/svg">
<path d="M6.21374 5.69164C4.7369 7.20273 3.82302 9.28908 3.82302 11.5972C3.82302 13.9048 4.7369 15.9914 6.21374 17.5022C7.24331 18.5549 8.54417 19.3268 10 19.698L10.1272 20.2657C8.47229 19.8979 6.99324 19.0477 5.83991 17.8677C4.27037 16.2625 3.30005 14.0442 3.30005 11.5972C3.30005 9.14978 4.27037 6.93164 5.83991 5.32638C6.13035 5.0292 6.44145 4.75293 6.77081 4.50002V5.17207C6.57743 5.33648 6.39154 5.50987 6.21374 5.69164Z" fill="#030712"/>
<path d="M20.1347 11.5972C20.1347 9.28908 19.2206 7.20273 17.7439 5.69164V4.96584C17.8719 5.08227 17.9965 5.20251 18.1176 5.32638C19.6873 6.93164 20.6577 9.14997 20.6575 11.5972C20.6577 13.3287 20.1718 14.9457 19.3315 16.312L18.7427 16.2632C19.6214 14.9315 20.1347 13.3264 20.1347 11.5972Z" fill="#030712"/>
<path fill-rule="evenodd" clip-rule="evenodd" d="M14.4318 17.1601L9.8463 17.3525V18.1221L10.2311 20.8157L10.0387 21.0402L6.83214 19.9499L6.60761 19.5651L6.28696 15.9417L5.54954 13.7611L5.38916 13.2481L7.95439 11.4845L8.75611 11.1638L9.46151 12.0296L10.0708 12.5747L10.7763 12.7992L11.0969 12.8954L11.4817 14.5628L11.7703 14.9155L12.5078 14.659L11.9947 15.6531L14.7845 16.9677L14.4318 17.1601Z" fill="#364153"/>
<path fill-rule="evenodd" clip-rule="evenodd" d="M6.83213 5.96908L7.66578 5.68048L8.33917 6.00121L8.6599 6.70663L9.04469 6.64247L9.14089 6.25767L8.94849 5.52021L9.14089 3.75651L8.98051 2.79453L9.5577 2.12114L10.8083 1.12712L10.4555 0.646127L8.69191 1.51191L7.95438 2.0891L7.53753 2.98692L6.89619 3.85271L6.7038 4.87886L6.83213 5.96908Z" fill="#364153"/>
<path fill-rule="evenodd" clip-rule="evenodd" d="M14.7205 17.1923L15.9069 17.1602L16.1955 20.1103L14.9769 20.2706L14.7205 17.1923Z" fill="#364153"/>
<path fill-rule="evenodd" clip-rule="evenodd" d="M15.0411 17.1923L16.8368 17.0961C16.8368 17.0961 17.5743 15.2362 17.5743 15.14C17.5743 15.0438 18.2156 12.4465 18.2156 12.4465L16.7726 10.9395L16.4841 10.6829L15.7145 11.4525V14.4346L15.0411 17.1923Z" fill="#364153"/>
<path d="M11.1836 12.0941L10.2953 11.9975L9.46149 11.741V12.0296L9.86887 12.4788L11.1515 13.056" fill="#364153"/>
<path fill-rule="evenodd" clip-rule="evenodd" d="M16.2466 13.7424C15.7025 13.7264 15.2109 13.6618 14.7806 13.5404C14.8098 13.3639 14.7551 13.1908 14.799 13.0637C14.919 12.9773 15.12 12.9787 15.3014 12.9584C15.1446 12.8813 14.9243 12.8508 14.7433 12.8954C14.7391 12.7729 14.6842 12.697 14.6509 12.6012C14.9568 12.492 15.679 11.7762 16.0852 12.0132C16.2787 12.126 16.361 12.7699 16.376 13.083C16.3885 13.3428 16.3524 13.6048 16.2466 13.7424Z" fill="#364153"/>
<path d="M16.2466 13.7424C15.7025 13.7264 15.2109 13.6618 14.7806 13.5404C14.8098 13.3639 14.7551 13.1908 14.799 13.0637C14.919 12.9773 15.12 12.9787 15.3014 12.9584C15.1446 12.8813 14.9243 12.8508 14.7433 12.8954C14.7391 12.7729 14.6842 12.697 14.6509 12.6012C14.9568 12.492 15.679 11.7762 16.0852 12.0132C16.2787 12.126 16.361 12.7699 16.376 13.083C16.3885 13.3428 16.3524 13.6048 16.2466 13.7424Z" stroke="#364153" stroke-width="0.192397"/>
<path fill-rule="evenodd" clip-rule="evenodd" d="M13.6448 12.8529C13.6433 12.8941 13.6416 12.9356 13.6399 12.9771C13.4701 13.0887 13.1958 13.0874 13.0094 13.1812C13.2842 13.1932 13.5006 13.2594 13.6878 13.3527C13.6836 13.4564 13.6797 13.56 13.6756 13.6637C13.3642 13.8769 13.0798 14.1943 12.7132 14.3942C12.5398 14.4888 11.9314 14.7321 11.747 14.6891C11.6426 14.6648 11.6333 14.5353 11.5915 14.4133C11.5027 14.1519 11.2981 13.7359 11.2802 13.3424C11.2575 12.8454 11.2073 12.0126 11.7429 12.1149C12.1749 12.1973 12.6775 12.3964 13.012 12.5792C13.2164 12.6909 13.3346 12.8291 13.6448 12.8529Z" fill="#364153"/>
<path d="M13.6448 12.8529C13.6433 12.8941 13.6416 12.9356 13.6399 12.9771C13.4701 13.0887 13.1958 13.0874 13.0094 13.1812C13.2842 13.1932 13.5006 13.2594 13.6878 13.3527C13.6836 13.4564 13.6797 13.56 13.6756 13.6637C13.3642 13.8769 13.0798 14.1943 12.7132 14.3942C12.5398 14.4888 11.9314 14.7321 11.747 14.6891C11.6426 14.6648 11.6333 14.5353 11.5915 14.4133C11.5027 14.1519 11.2981 13.7359 11.2802 13.3424C11.2575 12.8454 11.2073 12.0126 11.7429 12.1149C12.1749 12.1973 12.6775 12.3964 13.012 12.5792C13.2164 12.6909 13.3346 12.8291 13.6448 12.8529Z" stroke="#364153" stroke-width="0.192397"/>
<path fill-rule="evenodd" clip-rule="evenodd" d="M13.954 13.4459C13.9065 13.1752 13.8516 13.098 13.8728 12.8618C14.5948 12.3804 14.7303 13.6886 13.954 13.4459Z" fill="#364153"/>
<path d="M13.954 13.4459C13.9065 13.1752 13.8516 13.098 13.8728 12.8618C14.5948 12.3804 14.7303 13.6886 13.954 13.4459Z" stroke="#364153" stroke-width="0.192397"/>
<path fill-rule="evenodd" clip-rule="evenodd" d="M12.4763 3.36239C11.6023 3.15883 11.168 3.72813 10.9031 4.3186C10.6665 4.26126 10.7607 3.93958 10.8204 3.77565C10.9769 3.34545 11.6073 2.77278 12.1224 2.85042C12.3441 2.8838 12.6441 3.08649 12.4763 3.36239Z" fill="#030712"/>
<path fill-rule="evenodd" clip-rule="evenodd" d="M16.7346 4.35765C16.7484 4.35823 16.7623 4.35871 16.7761 4.35929C16.9736 4.76957 17.1445 5.2042 17.3937 5.56639C17.2268 5.95512 16.1298 6.29913 16.1467 5.60111C16.384 5.49741 16.7935 5.57995 17.0038 5.44748C16.8822 5.11377 16.7067 4.8297 16.7346 4.35765Z" fill="#030712"/>
<path fill-rule="evenodd" clip-rule="evenodd" d="M12.9237 4.36833C13.1111 4.71186 13.1721 5.0728 13.4385 5.33243C13.5584 5.44932 13.7917 5.59179 13.6761 5.91684C13.6491 5.99351 13.4516 6.16446 13.3376 6.19803C12.9211 6.32097 11.9508 6.22342 12.2794 5.70424C12.6238 5.72031 13.0867 5.9279 13.3441 5.67788C13.1464 5.36187 12.794 4.73668 12.9237 4.36833Z" fill="#030712"/>
<path fill-rule="evenodd" clip-rule="evenodd" d="M16.5783 7.85976C15.9513 8.26254 15.2521 8.70053 14.2247 8.59895C14.0052 8.40809 13.9215 7.98337 14.1348 7.70286C14.2458 7.89372 14.176 8.24474 14.4854 8.29756C15.0684 8.39732 15.7468 7.94095 16.1662 7.78145C16.4262 7.34308 16.1438 7.18185 15.9095 6.8997C15.43 6.32164 14.7867 5.60515 14.8101 4.73975C15.0039 4.59921 15.0206 4.95428 15.0484 5.01892C15.2988 5.60496 15.929 6.35445 16.389 6.85602C16.5019 6.97954 16.6879 7.09806 16.7085 7.17973C16.7682 7.41724 16.5534 7.7018 16.5783 7.85976Z" fill="#030712"/>
<path fill-rule="evenodd" clip-rule="evenodd" d="M8.31213 7.43572C8.1156 7.32355 8.06882 6.82948 7.83809 6.81543C7.50835 6.79542 7.56847 7.4564 7.56979 7.84293C7.34282 7.63687 7.30291 7.00244 7.46965 6.67662C7.27962 6.5833 7.19476 6.77955 7.08936 6.84871C7.22482 5.8646 8.52896 6.39225 8.31213 7.43572Z" fill="#030712"/>
<path fill-rule="evenodd" clip-rule="evenodd" d="M16.9775 8.26957C16.6856 8.82511 16.2728 9.43693 15.4163 9.45473C15.3989 9.27532 15.3855 9.00231 15.4173 8.89428C16.072 8.83136 16.4762 8.49813 16.9775 8.26957Z" fill="#030712"/>
<path fill-rule="evenodd" clip-rule="evenodd" d="M12.8743 8.62973C13.4206 8.91698 14.4245 8.94786 15.167 8.92612C15.2068 9.08879 15.2058 9.28975 15.2074 9.48811C14.253 9.53573 13.1246 9.29956 12.8743 8.62973Z" fill="#030712"/>
<path fill-rule="evenodd" clip-rule="evenodd" d="M12.7705 9.16537C13.1483 10.1138 14.4466 10.0046 15.5414 9.97843C15.4932 10.1016 15.3887 10.247 15.2589 10.2996C14.908 10.4424 13.9404 10.5507 13.4533 10.292C13.1444 10.1278 12.946 9.75679 12.7767 9.53929C12.695 9.43424 12.288 9.16594 12.7705 9.16537Z" fill="#030712"/>
<path fill-rule="evenodd" clip-rule="evenodd" d="M16.5327 14.3969C16.0894 15.1561 15.6653 15.9359 15.1393 16.6056C15.3598 15.9573 15.4542 14.8722 15.4875 14.045C15.9488 13.8292 16.3437 14.0936 16.5327 14.3969Z" fill="#364153"/>
<path fill-rule="evenodd" clip-rule="evenodd" d="M18.918 17.1256C18.4218 17.225 18.073 17.7073 17.5889 17.6763C17.855 17.3012 18.3212 17.1431 18.918 17.1256Z" fill="#030712"/>
<path fill-rule="evenodd" clip-rule="evenodd" d="M19.137 17.9023C18.7325 17.945 18.2573 18.0105 17.847 17.9768C18.0413 17.6801 18.7896 17.7825 19.137 17.9023Z" fill="#030712"/>
<path fill-rule="evenodd" clip-rule="evenodd" d="M19.2771 18.5719C18.8225 18.5818 18.2574 18.5727 17.8253 18.5364C18.0809 18.2619 18.9823 18.4346 19.2771 18.5719Z" fill="#030712"/>
<path fill-rule="evenodd" clip-rule="evenodd" d="M12.2123 15.5373C12.3553 14.9177 12.9155 14.5968 13.4243 14.2556C13.9495 14.9221 14.2689 15.7792 14.6206 16.6063C13.7896 16.3558 12.9406 15.9494 12.2123 15.5373Z" fill="#364153"/>
<path fill-rule="evenodd" clip-rule="evenodd" d="M15.1344 20.4872C15.1131 20.9938 15.1842 21.8062 15.208 22.3376C15.5448 22.3381 15.6891 22.2639 15.9405 22.1792C15.9689 21.5539 15.7425 20.9754 15.6773 20.4044C15.5443 20.3689 15.3 20.4982 15.1344 20.4872ZM9.8902 17.6062C10.1123 19.6478 10.4339 21.3641 11.0239 23.172C12.3333 23.5695 13.9118 23.6042 15.0691 23.2454C14.8566 22.2251 14.9495 20.9828 14.8253 19.8939C14.7317 19.0755 14.7794 18.252 14.6511 17.417C13.2487 17.1252 11.2665 17.3488 9.8902 17.6062ZM14.9827 17.4298C14.9708 18.3066 15.0219 19.1715 15.0889 20.0495C15.4256 19.9989 15.654 19.9652 15.9669 19.8966C15.8653 19.0514 15.8778 18.1004 15.6709 17.3527C15.4317 17.355 15.2211 17.3499 14.9827 17.4298ZM16.6907 17.2885C16.5309 17.2518 16.3448 17.287 16.1922 17.29C16.2639 18.0048 16.438 18.7935 16.4993 19.5438C16.7395 19.5512 16.8679 19.4379 17.0655 19.3998C17.076 18.7412 17.0079 17.8339 16.6907 17.2885ZM19.2769 19.6514C19.7776 19.5298 20.0924 18.9165 19.9524 18.2867C19.8584 17.8634 19.691 17.0664 19.5119 16.7956C19.3795 16.5953 19.0206 16.3331 18.734 16.5167C18.2678 16.8152 17.4466 16.9018 17.1066 17.2632C17.2771 17.8307 17.33 18.6103 17.4003 19.3295C17.9827 19.3658 18.6993 19.1692 19.1836 19.3778C18.8455 19.4873 18.4067 19.4882 18.1146 19.6478C18.3534 19.7632 18.9124 19.7399 19.2769 19.6514ZM14.6206 16.6063C14.2689 15.7792 13.9495 14.9221 13.4243 14.2556C12.9156 14.5968 12.3553 14.9177 12.2123 15.5373C12.9406 15.9494 13.7896 16.3558 14.6206 16.6063ZM15.4875 14.045C15.4542 14.8722 15.3599 15.9573 15.1394 16.6056C15.6653 15.9359 16.0894 15.1561 16.5327 14.3969C16.3438 14.0936 15.9488 13.8292 15.4875 14.045ZM14.5047 13.6958C14.3055 13.6744 14.1364 13.9249 13.8773 13.8166C13.818 13.8822 13.764 13.9533 13.7035 14.0173C14.2757 14.7069 14.5357 15.6852 14.9777 16.4956C15.2148 15.7172 15.1875 14.8643 15.2397 14.0147C14.9139 14.0354 14.7331 13.7201 14.5047 13.6958ZM13.8728 12.8618C13.8516 13.098 13.9065 13.1752 13.954 13.4459C14.7303 13.6886 14.5948 12.3804 13.8728 12.8618ZM13.0119 12.5792C12.6774 12.3964 12.1749 12.1973 11.7428 12.1149C11.2073 12.0125 11.2575 12.8454 11.2802 13.3424C11.298 13.7358 11.5026 14.1519 11.5915 14.4133C11.6332 14.5353 11.6426 14.6648 11.747 14.6891C11.9314 14.7321 12.5398 14.4888 12.7131 14.3942C13.0798 14.1943 13.3642 13.8769 13.6756 13.6637C13.6797 13.56 13.6836 13.4564 13.6877 13.3527C13.5005 13.2594 13.2842 13.1932 13.0093 13.1812C13.1958 13.0874 13.47 13.0887 13.6399 12.9771C13.6416 12.9356 13.6433 12.8941 13.6447 12.8529C13.3346 12.8291 13.2164 12.6909 13.0119 12.5792ZM9.81685 11.9988C9.53922 12.2807 10.5955 12.6649 10.9318 12.6856C10.93 12.5072 11.0335 12.339 11.0126 12.2111C10.6132 12.141 10.0882 12.1872 9.81685 11.9988ZM13.2369 12.1312C13.2355 12.1587 13.1996 12.1487 13.1938 12.1711C13.5509 12.4503 13.8163 12.508 14.3024 12.4839C14.5217 12.3248 14.7161 12.1388 14.9444 11.9898C14.4188 12.0367 13.7573 12.3631 13.2369 12.1312ZM16.376 13.083C16.361 12.7699 16.2787 12.126 16.0852 12.0132C15.6789 11.7761 14.9568 12.492 14.6509 12.6012C14.6842 12.697 14.7391 12.7729 14.7433 12.8954C14.9243 12.8508 15.1446 12.8813 15.3014 12.9584C15.12 12.9787 14.919 12.9773 14.799 13.0637C14.7551 13.1908 14.8098 13.3639 14.7806 13.5404C15.2109 13.6618 15.7025 13.7264 16.2466 13.7424C16.3524 13.6048 16.3885 13.3428 16.376 13.083ZM9.34946 12.2714C9.26227 12.2093 8.6725 11.4419 8.5917 11.4737C7.5245 11.8946 6.52663 12.6224 5.63492 13.3107C6.48511 15.135 6.82831 17.37 6.88895 19.5243C7.86288 19.9798 8.71834 20.6365 10.0399 20.705C9.887 19.623 9.7474 18.6576 9.66059 17.6389C9.32852 17.4989 8.85211 17.6453 8.54135 17.5955C8.53871 17.221 9.01595 17.4315 9.0557 17.1797C9.08566 16.9892 8.79312 16.9748 8.88838 16.6748C9.13132 16.7631 9.25889 16.9582 9.51799 17.0314C9.75473 16.5135 9.51468 15.5971 9.5488 15.1642C9.55526 15.0829 9.58938 14.7139 9.77145 14.7787C9.93258 14.836 9.76224 15.7601 9.7799 16.1698C9.79599 16.5472 9.73432 16.9125 9.88719 17.1495C11.1643 16.9756 12.462 16.8633 13.8438 16.8254C13.5398 16.6949 13.1787 16.5715 12.7827 16.3483C12.5681 16.2273 11.8915 15.9755 11.8296 15.7717C11.7307 15.4468 12.0889 15.2738 12.1501 14.9953C11.5055 15.3469 11.3797 14.6583 11.2272 14.1705C11.089 13.7286 11.0104 13.3986 10.9765 13.1437C10.4212 12.879 9.82744 12.6109 9.34946 12.2714ZM15.812 11.5666C16.7012 11.1354 16.8614 13.178 16.5129 13.836C16.5668 14.0322 16.752 14.1074 16.8277 14.2838C16.3315 15.1727 15.7803 16.0024 15.274 16.8808C15.6507 16.6463 16.1886 16.8388 16.6318 16.6634C16.7938 16.5993 16.9111 16.2284 17.0337 15.9318C17.3711 15.1155 17.7253 14.0865 17.8829 13.3076C17.9184 13.1301 18.0154 12.7434 17.9937 12.5854C17.9549 12.3026 17.5712 12.0929 17.376 11.918C17.0164 11.595 16.7899 11.3107 16.4149 11.0086C16.2628 11.2331 15.9364 11.384 15.812 11.5666ZM7.31595 3.68138C6.89226 4.14756 6.98094 5.02104 7.03224 5.64248C7.79806 5.16072 8.81453 5.68058 8.80495 6.49999C9.17058 6.49028 8.94155 6.04334 8.87541 5.75542C8.65927 4.81498 9.23954 3.79326 8.90172 2.93324C8.2458 2.98298 7.70693 3.25089 7.31595 3.68138ZM10.3475 0.975702C9.38835 1.24756 8.15907 1.94452 7.76492 2.80617C8.07012 2.76182 8.28199 2.6079 8.58306 2.58885C8.69685 2.58145 8.84591 2.63657 8.97669 2.60405C9.23729 2.53941 9.45723 1.9551 9.65383 1.73769C9.84547 1.52538 10.0758 1.43467 10.2335 1.24112C10.3347 1.19225 10.4845 1.19561 10.4902 1.04352C10.4463 0.996578 10.4001 0.960793 10.3475 0.975702ZM15.3405 1.2314C14.345 0.669695 12.6598 0.247192 11.6008 0.775129C10.7463 1.20119 9.59126 1.90613 9.19745 2.79943C9.56533 3.66147 9.08848 4.45135 9.05804 5.32657C9.04188 5.79226 9.27731 6.1988 9.29534 6.70576C9.16946 6.91346 8.78485 6.93904 8.51861 6.92481C8.42899 6.47633 8.2721 5.97225 7.81028 5.92165C7.1568 5.85017 6.67901 6.391 6.64932 6.95617C6.61419 7.6208 7.15981 8.72237 7.93316 8.64589C8.2319 8.61636 8.30529 8.31689 8.63079 8.31997C8.8072 8.67196 8.35865 8.78249 8.3125 9.03425C8.30048 9.09928 8.3497 9.35343 8.37833 9.47262C8.5188 10.053 8.83194 10.8041 9.14015 11.2459C9.53133 11.8064 10.2999 11.8909 11.1267 11.9458C11.2744 11.6277 11.8184 11.6538 12.1728 11.737C11.748 11.5688 11.3531 11.1609 11.0258 10.7999C10.6498 10.3856 10.269 9.9413 10.2497 9.3999C10.9602 10.3855 11.5472 11.2463 12.8391 11.6799C13.8166 12.0077 14.9583 11.5296 15.7094 11.0022C16.0211 10.7829 16.2072 10.4351 16.4287 10.1167C17.2577 8.92429 17.6445 7.22235 17.5594 5.57274C17.5244 4.89242 17.526 4.21442 17.2977 3.7567C17.0591 3.27812 16.2522 2.84994 15.7799 3.28283C15.6923 2.81742 16.1726 2.5296 16.7368 2.69708C16.3345 2.17789 15.9123 1.55405 15.3405 1.2314ZM17.1953 16.5815C17.9733 16.1948 19.4268 15.5405 19.9146 16.5829C20.0946 16.9672 20.3057 17.6167 20.3989 18.0133C20.5306 18.5729 20.2562 19.749 19.681 19.9368C19.173 20.1026 18.5802 20.0925 17.9683 19.9696C17.8962 19.9097 17.816 19.8052 17.7599 19.6963C17.323 19.6794 16.9138 19.7198 16.5687 19.8994C16.6014 20.2225 16.3828 20.2744 16.1779 20.3409C16.026 20.9432 16.4818 21.7297 16.3727 22.2789C16.2949 22.6702 15.8135 22.7307 15.4597 22.8039C15.4482 23.0213 15.4752 23.2028 15.4993 23.3868C15.4184 23.6849 15.0556 23.8546 14.7118 23.8961C13.5806 24.0322 11.863 24.0933 10.775 23.702C10.4713 22.9573 10.2321 22.0514 9.97925 21.201C8.91806 21.3144 8.05979 20.7431 7.25068 20.3689C6.97054 20.239 6.583 20.1675 6.47835 19.9445C6.37689 19.7286 6.4184 19.3149 6.39323 18.924C6.32916 17.9258 6.2743 16.9629 6.01069 15.9408C5.89232 15.4821 5.68602 15.0774 5.54209 14.6355C5.40907 14.2259 5.17666 13.7197 5.11604 13.3112C5.02616 12.7059 5.59621 12.6722 5.96071 12.4098C6.52418 12.0042 6.96648 11.7798 7.57673 11.4137C7.75748 11.3053 8.30255 11.0308 8.36455 10.9044C8.4878 10.6538 8.15299 10.3005 8.06348 10.1041C7.92188 9.79344 7.84804 9.52957 7.82775 9.22308C7.31583 9.14218 6.92777 8.83752 6.69336 8.494C6.3056 7.92546 6.03669 6.87363 6.37218 6.07355C6.39849 6.01054 6.52971 5.88663 6.54906 5.78986C6.58724 5.59929 6.47721 5.3459 6.47037 5.14321C6.43512 4.10331 6.64632 3.20731 7.34638 2.89371C7.63058 1.76155 8.64776 1.38512 9.6061 0.822458C9.96434 0.612169 10.3592 0.477779 10.7671 0.327709C12.2301 -0.210712 14.4747 -0.10932 15.689 0.80899C16.2038 1.1984 17.0268 2.02061 17.3212 2.61588C18.0986 4.18748 18.0434 6.81399 17.4996 8.72574C17.4265 8.98239 17.3205 9.35969 17.1724 9.668C17.0692 9.88329 16.7484 10.3141 16.7873 10.5042C16.8275 10.7007 17.5188 11.2256 17.6671 11.3686C17.934 11.6261 18.4412 11.9679 18.4823 12.2929C18.5264 12.6387 18.3299 13.1118 18.2303 13.4455C17.8975 14.5592 17.5727 15.5886 17.1953 16.5815Z" fill="#030712"/>
<path fill-rule="evenodd" clip-rule="evenodd" d="M14.8166 14.3865C14.8166 14.4839 14.7376 14.5628 14.6402 14.5628C14.5428 14.5628 14.4639 14.4839 14.4639 14.3865C14.4639 14.2892 14.5428 14.2101 14.6402 14.2101C14.7376 14.2101 14.8166 14.2892 14.8166 14.3865Z" fill="#030712"/>
<path fill-rule="evenodd" clip-rule="evenodd" d="M14.993 15.2042C14.993 15.3016 14.914 15.3805 14.8165 15.3805C14.7192 15.3805 14.6402 15.3016 14.6402 15.2042C14.6402 15.1069 14.7192 15.0278 14.8165 15.0278C14.914 15.0278 14.993 15.1069 14.993 15.2042Z" fill="#030712"/>
</svg>
