<svg width="24" height="24" viewBox="0 0 24 24" fill="none" xmlns="http://www.w3.org/2000/svg">
<path d="M14.9855 8.25C13.3546 8.25 11.8902 9.10055 11.8902 10.6614C11.8902 12.4589 14.4769 12.5817 14.4769 13.4761C14.4769 13.8531 14.0385 14.1951 13.3019 14.1951C12.2497 14.1951 11.4605 13.7216 11.4605 13.7216L11.1273 15.2999C11.1273 15.2999 12.0305 15.7033 13.2406 15.7033C15.0294 15.7033 16.4323 14.8177 16.4323 13.2218C16.4323 11.3278 13.8368 11.205 13.8368 10.372C13.8368 10.0739 14.1963 9.74943 14.9329 9.74943C15.7659 9.74943 16.4499 10.0914 16.4499 10.0914L16.7831 8.56567C16.7743 8.56567 16.029 8.25 14.9855 8.25ZM0.0438429 8.36399L0 8.59197C0 8.59197 0.68395 8.71474 1.30652 8.96902C2.10446 9.25839 2.15707 9.42499 2.29737 9.94234L3.76172 15.5805H5.72589L8.73351 8.36399H6.77812L4.84026 13.2744L4.05109 9.10932C3.98094 8.63582 3.61266 8.36399 3.15669 8.36399H0.0438429ZM9.52269 8.36399L7.98818 15.5805H9.85589L11.3816 8.36399H9.52269ZM19.9222 8.36399C19.475 8.36399 19.2383 8.60074 19.0629 9.02164L16.3271 15.5805H18.2825L18.6596 14.4845H21.0446L21.2726 15.5805H23L21.5006 8.36399H19.9222ZM20.1765 10.3194L20.7552 13.0289H19.2032L20.1765 10.3194Z" fill="#1434CB"/>
</svg>
